<svg
  xmlns="http://www.w3.org/2000/svg"
  viewBox="0 0 128 128"
  role="img"
  aria-labelledby="title desc"
>
  <title id="title">TechStore Risk Analysis Icon</title>
  <desc id="desc">
    Professional badge with shield and analytics line for risk governance.
  </desc>
  <defs>
    <radialGradient id="ring" cx="24" cy="20" r="130" gradientUnits="userSpaceOnUse">
      <stop offset="0" stop-color="#25508c" />
      <stop offset="1" stop-color="#102542" />
    </radialGradient>
    <linearGradient id="shield" x1="64" y1="30" x2="64" y2="98" gradientUnits="userSpaceOnUse">
      <stop offset="0" stop-color="#f1c86a" />
      <stop offset="1" stop-color="#c9942b" />
    </linearGradient>
  </defs>

  <circle cx="64" cy="64" r="58" fill="url(#ring)" />
  <circle cx="64" cy="64" r="52" fill="none" stroke="#6ca0dc" stroke-opacity="0.35" stroke-width="2" />

  <path
    d="M64 27c14 9 25 13 34 14v23c0 21-13 32-34 41-21-9-34-20-34-41V41c9-1 20-5 34-14Z"
    fill="url(#shield)"
  />
  <path
    d="M64 38c9 6 17 8 24 9v15c0 15-8 23-24 30-16-7-24-15-24-30V47c7-1 15-3 24-9Z"
    fill="#fff9ea"
  />

  <path
    d="M44 76h40"
    fill="none"
    stroke="#1f3657"
    stroke-opacity="0.25"
    stroke-width="5"
    stroke-linecap="round"
  />
  <path
    d="M47 69 58 60l8 8 15-17"
    fill="none"
    stroke="#1f3657"
    stroke-linecap="round"
    stroke-linejoin="round"
    stroke-width="7"
  />
</svg>
